<?xml version="1.0" standalone="no"?>
<!DOCTYPE svg PUBLIC "-//W3C//DTD SVG 20010904//EN"
 "http://www.w3.org/TR/2001/REC-SVG-20010904/DTD/svg10.dtd">
<svg version="1.0" xmlns="http://www.w3.org/2000/svg"
 width="260.000000pt" height="260.000000pt" viewBox="0 0 260.000000 260.000000"
 preserveAspectRatio="xMidYMid meet">
<metadata>
Created by potrace 1.11, written by Peter Selinger 2001-2013
</metadata>
<g transform="translate(0.000000,260.000000) scale(0.100000,-0.100000)"
fill="#000000" stroke="none">
<path d="M1301 2596 c3 -3 19 -7 36 -11 60 -10 176 -57 246 -99 121 -72 227
-199 278 -335 18 -49 25 -78 43 -181 3 -14 5 -42 5 -62 l1 -38 345 0 345 0 0
365 0 365 -652 0 c-358 0 -649 -2 -647 -4z"/>
<path d="M635 2030 c-2 -3 -3 -99 -3 -213 0 -146 4 -207 12 -208 6 0 107 -1
225 -1 239 0 285 8 333 56 111 111 72 318 -67 358 -41 11 -493 19 -500 8z"/>
<path d="M1880 1656 c-6 -6 -10 -16 -10 -23 0 -15 -55 -105 -92 -149 -35 -43
-130 -134 -140 -134 -21 0 -4 -22 40 -52 64 -44 156 -139 189 -195 14 -25 36
-73 49 -107 l22 -61 331 0 331 0 -2 365 -3 365 -353 0 c-211 0 -357 -4 -362
-9z"/>
<path d="M652 1030 c-18 -5 -19 -19 -20 -232 l-2 -228 263 3 262 2 46 27 c157
93 129 372 -42 418 -42 12 -470 20 -507 10z"/>
<path d="M1951 730 c-4 -3 -8 -23 -9 -45 -10 -174 -89 -354 -204 -463 -109
-103 -191 -149 -344 -192 l-98 -27 650 1 649 1 3 365 2 365 -321 0 c-176 0
-324 -2 -328 -5z"/>
</g>
</svg>
